<svg width="800.0000000000001" height="400.00000000000006" xmlns="http://www.w3.org/2000/svg">
 <title>factory</title>

 <g>
  <title>Layer 1</title>
  <path id="svg_1" fill="#e2e2e2" d="m213.70122,342.116l-21.87443,-34.71387l21.88457,38.49557l0.01173,3.95547q2.34084,-0.02736 4.63442,-0.17946l-1.78417,-50.81218l0.02346,-0.39275l-0.0402,-0.075l-0.16988,-4.80142l22.87164,-38.04637l-22.89523,34.4507l-0.06851,1.017l-1.34778,-38.39059l19.66232,-39.36387l-19.816,32.61808l-0.92176,-79.573l-0.00422,-0.26483l-0.00317,0.2606l-0.44881,62.73791l-18.78843,-25.10244l18.80506,30.50606l0.08719,34.362l-17.4329,-33.18692l17.44253,38.23878l0.04824,19.107l-25.32289,-46.20812l25.34285,52.87363l0.10437,42.48802z"/>
  <path id="svg_2" fill="#e2e2e2" d="m401.41283,342.116l-21.87443,-34.71387l21.8846,38.49557l0.01173,3.95547q2.34084,-0.02736 4.63442,-0.17946l-1.78415,-50.81218l0.02346,-0.39275l-0.0402,-0.075l-0.16988,-4.80142l22.87162,-38.04635l-22.89524,34.4507l-0.0685,1.017l-1.34778,-38.39059l19.66232,-39.36387l-19.816,32.61808l-0.92176,-79.573l-0.00423,-0.26483l-0.00317,0.2606l-0.4488,62.73791l-18.78843,-25.10244l18.80506,30.50606l0.08719,34.362l-17.43291,-33.18692l17.44254,38.23878l0.04823,19.107l-25.32288,-46.20808l25.34285,52.87363l0.10434,42.48796z"/>
  <path id="svg_3" fill="#e2e2e2" d="m25.81131,344.34862l-15.79541,-25.0667l15.80273,27.79745l0.00847,2.85622q1.6903,-0.01975 3.34649,-0.12959l-1.28834,-36.6912l0.01694,-0.2836l-0.029,-0.05415l-0.12267,-3.46707l16.51548,-27.47309l-16.53253,24.87667l-0.04946,0.73435l-0.97323,-27.72164l14.19806,-28.42444l-14.309,23.55334l-0.6656,-57.45927l-0.00305,-0.19123l-0.00229,0.18817l-0.32408,45.30272l-13.567,-18.12634l13.579,22.02826l0.063,24.81262l-12.58821,-23.9641l12.59516,27.612l0.03484,13.79707l-18.28561,-33.36659l18.29994,38.17977l0.07537,30.68037z"/>
  <path id="svg_4" fill="#e2e2e2" d="m857.94505,342.116l-21.87443,-34.71387l21.88456,38.49557l0.01173,3.95547q2.34084,-0.02736 4.63443,-0.17946l-1.78418,-50.81218l0.02346,-0.39275l-0.04019,-0.075l-0.16989,-4.80142l22.87164,-38.04637l-22.89523,34.4507l-0.0685,1.017l-1.34778,-38.39059l19.66231,-39.36387l-19.816,32.61808l-0.92176,-79.573l-0.00422,-0.26483l-0.00317,0.2606l-0.44881,62.73791l-18.78843,-25.10244l18.80506,30.50606l0.0872,34.362l-17.43291,-33.18692l17.44253,38.23878l0.04824,19.107l-25.32289,-46.20808l25.34285,52.87363l0.10438,42.48798z"/>
  <rect transform="rotate(-180 803.428 904.738)" id="svg_5" fill="#6c63ff" height="5" width="118" y="1519.77047" x="1224.1418"/>
  <rect transform="rotate(-180 791.428 894.738)" stroke="null" id="svg_6" fill="#6c63ff" height="5" width="118" y="1504.77047" x="1206.1418"/>
  <rect transform="rotate(-180 805.428 884.738)" id="svg_7" fill="#6c63ff" height="5" width="118" y="1489.77047" x="1227.1418"/>
  <rect transform="rotate(-180 829.428 874.738)" id="svg_8" fill="#6c63ff" height="5" width="118" y="1474.77047" x="1263.1418"/>
  <rect transform="rotate(-180 514.723 854.636)" id="svg_9" fill="#3f3d56" height="29.08849" width="4.09697" y="1432.57324" x="848.03595"/>
  <rect transform="rotate(-112.092 -100.386 804.518)" id="svg_10" fill="#3f3d56" height="163.62126" width="4.09697" y="1271.40544" x="307.44494"/>
  <rect transform="rotate(-180 394.682 956.65)" id="svg_11" fill="#3f3d56" height="13.9297" width="35.64365" y="1593.17444" x="652.20072"/>
  <rect transform="rotate(-180 541.353 982.871)" id="svg_12" fill="#3f3d56" height="15.56849" width="175.76006" y="1631.68607" x="802.14987"/>
  <polygon id="svg_13" fill="#e2e2e2" points="133.67999267578125,326.27196502685547 175.87899780273438,326.27196502685547 175.87899780273438,273.2159652709961 144.33200073242188,273.2159652709961 133.67999267578125,299.97496795654297 133.67999267578125,326.27196502685547 "/>
  <rect transform="rotate(-180 476.621 901.341)" id="svg_14" fill="#fff" height="18.02667" width="18.02667" y="1508.16232" x="783.91834"/>
  <polygon id="svg_15" fill="#fff" points="137.77699279785156,294.72496795654297 149.24899291992188,294.72496795654297 149.24899291992188,276.69896697998047 144.33200073242188,276.69896697998047 137.77699279785156,294.72496795654297 "/>
  <rect transform="rotate(-180 488.912 947.637)" id="svg_16" fill="#3f3d56" height="7.78425" width="4.09697" y="1582.7272" x="809.31955"/>
  <path transform="rotate(180 443.436 914.452)" id="svg_17" fill="#3f3d56" d="m741.10501,1532.94904l0.20485,0a3.89212,3.89212 0 0 1 3.89212,3.89212l0,0a3.89212,3.89212 0 0 1 -3.89212,3.89212l-0.20485,0a0,0 0 0 1 0,0l0,-7.78425a0,0 0 0 1 0,0.00001z"/>
  <path id="svg_18" fill="#3f3d56" d="m298.17364,326.27193l-0.20485,0a-3.89212,-3.89212 0 0 1 -3.89212,-3.89212l0,0a-3.89212,-3.89212 0 0 1 3.89212,-3.89212l0.20485,0a0,0 0 0 1 0,0l0,7.78425a0,0 0 0 1 0,-0.00001z"/>
  <path id="svg_19" fill="#e2e2e2" d="m117.29236,318.42891a20.2704,20.2704 0 0 0 -15.75558,7.843l-8.00685,0l7.78425,-21.68366l36.25819,-7.151l-1.02424,28.83466l-3.50013,0a20.27042,20.27042 0 0 0 -15.75564,-7.843z"/>
  <circle id="svg_20" fill="#3f3d56" r="17.82182" cy="331.39316" cx="116.88267"/>
  <circle id="svg_21" fill="#e2e2e2" r="9.37991" cy="331.39316" cx="116.88267"/>
  <circle id="svg_22" fill="#3f3d56" r="15.56849" cy="333.44165" cx="277.89363"/>
  <circle id="svg_23" fill="#e2e2e2" r="8.19394" cy="333.44165" cx="277.89363"/>
  <rect transform="rotate(-180 513.904 924.08)" id="svg_24" fill="#3f3d56" height="62.06911" width="8.60364" y="1520.24836" x="844.55352"/>
  <rect transform="rotate(-180 629.028 967.303)" id="svg_25" fill="#3f3d56" height="3.68727" width="123.72853" y="1614.27395" x="959.6784"/>
  <rect transform="rotate(-180 446.713 923.055)" id="svg_26" fill="#3f3d56" height="1.63879" width="4.09697" y="1548.92723" x="746.02136"/>
  <path id="svg_27" fill="#3f3d56" d="m324.39425,289.67467a0.40971,0.40971 0 0 1 -0.10422,-0.31848l5.65034,-53.43206a0.40987,0.40987 0 0 1 0.40569,-0.36669l0.0018,0a0.40985,0.40985 0 0 1 0.4071,0.36309l6.11104,53.32125a0.40975,0.40975 0 0 1 -0.4033,0.4563l-11.76139,0.11083l-0.0038,0a0.40928,0.40928 0 0 1 -0.30326,-0.13424zm5.97,-49.96645l-5.211,49.27688l10.84675,-0.10202l-5.63575,-49.17486z"/>
  <path transform="rotate(20.7174 86.9413 -380.213)" id="svg_28" fill="#3f3d56" d="m342.82155,255.49128l0.20485,0a3.89212,3.89212 0 0 1 3.89212,3.89212l0,0a3.89212,3.89212 0 0 1 -3.89212,3.89212l-0.20485,0a0,0 0 0 1 0,0l0,-7.78425a0,0 0 0 1 0,0.00001z"/>
  <rect transform="rotate(-180 817.079 761.635)" id="svg_29" fill="#3f3d56" height="59.81578" width="4.09697" y="1277.70769" x="1301.57063"/>
  <circle id="svg_30" fill="#3f3d56" r="5.73576" cy="248.4295" cx="179.36148"/>
  <rect transform="rotate(-180 649.428 958.738)" id="svg_31" fill="#6c63ff" height="5" width="118" y="1600.77041" x="993.1418"/>
  <rect transform="rotate(-180 663.428 948.738)" id="svg_32" fill="#6c63ff" height="5" width="118" y="1585.77041" x="1014.1418"/>
  <rect transform="rotate(-180 653.428 940.738)" id="svg_33" fill="#6c63ff" height="5" width="118" y="1573.77041" x="999.1418"/>
  <rect transform="rotate(-180 667.428 930.738)" id="svg_34" fill="#6c63ff" height="5" width="118" y="1558.77041" x="1020.1418"/>
  <path id="svg_35" fill="#e2e2e2" d="m367.33725,81.65217a15.59567,15.59567 0 0 1 10.23657,3.81414a15.60631,15.60631 0 0 1 6.88715,-0.30262a15.65993,15.65993 0 0 1 28.55484,8.887l-60.99694,0a15.66484,15.66484 0 0 1 15.31838,-12.39852z"/>
  <path id="svg_36" fill="#e2e2e2" d="m269.57156,131.00026a14.74417,14.74417 0 0 1 9.67768,3.6059a14.75453,14.75453 0 0 1 6.51113,-0.2861a14.80494,14.80494 0 0 1 26.99582,8.40174l-57.66666,0a14.80958,14.80958 0 0 1 14.48203,-11.72154z"/>
  <path id="svg_37" fill="#e2e2e2" d="m167.82419,72.60817a15.34075,15.34075 0 0 1 10.06927,3.75181a15.35133,15.35133 0 0 1 6.77459,-0.29768a15.404,15.404 0 0 1 28.08814,8.7417l-60,0a15.40882,15.40882 0 0 1 15.068,-12.19583z"/>
  <rect transform="rotate(-180 1439.97 856.558)" id="svg_39" fill="#3f3d56" height="170.58898" width="147.45827" y="1364.70637" x="2164.21963"/>
  <rect transform="rotate(-180 1439.97 992.451)" id="svg_40" fill="#e2e2e2" height="34.69606" width="39.75591" y="1636.49222" x="2218.07081"/>
  <path id="svg_42" fill="#6c63ff" d="m529.94113,121.44l17.3501,0l-0.61963,-26.02l0,-0.01l-2.27051,-95.41a11.09469,11.09469 0 0 1 -11.56982,0l-2.27,95.41l0,0.01l-0.62014,26.02z"/>
  <polygon id="svg_43" fill="#6c63ff" points="498.1409912109375,140.22997283935547 498.1409912109375,348.4099655151367 579.0919799804688,348.4099655151367 579.0919799804688,137.33995819091797 560.301025390625,138.00997161865234 560.301025390625,95.41996002197266 516.9310302734375,95.41996002197266 516.9310302734375,139.5599594116211 498.1409912109375,140.22997283935547 "/>
  <path id="svg_45" fill="#6c63ff" d="m736.67428,121.43989l17.348,0l-2.89128,-121.43622a17.10079,17.10079 0 0 1 -11.56535,0l-2.89137,121.43622z"/>
  <polygon id="svg_46" fill="#6c63ff" points="704.8709716796875,140.22997283935547 704.8709716796875,348.4099655151367 785.8309936523438,348.4099655151367 785.8309936523438,137.33995819091797 779.1810302734375,137.57996368408203 767.031005859375,138.00997161865234 767.031005859375,95.41996002197266 723.6610107421875,95.41996002197266 723.6610107421875,139.5599594116211 704.8709716796875,140.22997283935547 "/>
  <rect transform="rotate(-180 1503.97 747.147)" id="svg_47" fill="#fff" height="20" width="20" y="1275.88434" x="2323.94876"/>
  <rect transform="rotate(-180 1439.97 747.147)" id="svg_48" fill="#fff" height="20" width="20" y="1275.88434" x="2227.94876"/>
  <rect transform="rotate(-180 1375.97 747.147)" id="svg_49" fill="#fff" height="20" width="20" y="1275.88434" x="2131.94876"/>
  <rect transform="rotate(-180 1503.97 811.147)" id="svg_50" fill="#fff" height="20" width="20" y="1371.88434" x="2323.94876"/>
  <rect transform="rotate(-180 1439.97 811.147)" id="svg_51" fill="#fff" height="20" width="20" y="1371.88434" x="2227.94876"/>
  <rect transform="rotate(-180 1375.97 811.147)" id="svg_52" fill="#fff" height="20" width="20" y="1371.88434" x="2131.94876"/>
  <rect transform="rotate(-180 1503.97 875.147)" id="svg_53" fill="#fff" height="20" width="20" y="1467.88434" x="2323.94876"/>
  <rect transform="rotate(-180 1439.97 875.147)" id="svg_54" fill="#fff" height="20" width="20" y="1467.88434" x="2227.94876"/>
  <rect transform="rotate(-180 1375.97 875.147)" id="svg_55" fill="#fff" height="20" width="20" y="1467.88434" x="2131.94876"/>
  <rect transform="rotate(-180 1233.24 731.147)" id="svg_56" fill="#fff" height="20" width="20" y="1251.88434" x="1917.85282"/>
  <rect transform="rotate(-180 1233.24 795.147)" id="svg_57" fill="#fff" height="20" width="20" y="1347.88434" x="1917.85282"/>
  <rect transform="rotate(-180 1233.24 859.147)" id="svg_58" fill="#fff" height="20" width="20" y="1443.88434" x="1917.85282"/>
  <rect transform="rotate(-180 1233.24 923.147)" id="svg_59" fill="#fff" height="20" width="20" y="1539.88434" x="1917.85282"/>
  <rect transform="rotate(-180 1646.36 731.147)" id="svg_60" fill="#fff" height="20" width="20" y="1251.88434" x="2537.54404"/>
  <rect transform="rotate(-180 1646.36 795.147)" id="svg_61" fill="#fff" height="20" width="20" y="1347.88434" x="2537.54404"/>
  <rect transform="rotate(-180 1646.36 859.147)" id="svg_62" fill="#fff" height="20" width="20" y="1443.88434" x="2537.54404"/>
  <rect transform="rotate(-180 1646.36 923.147)" id="svg_63" fill="#fff" height="20" width="20" y="1539.88434" x="2537.54404"/>
  <rect x="0" id="svg_64" fill="#3f3d56" height="2" width="888" y="347.70534"/>
 </g>
</svg>