<svg width="800" height="400" xmlns="http://www.w3.org/2000/svg">
 <title>map</title>

 <g>
  <title>Layer 1</title>
  <ellipse id="svg_1" transform="rotate(-45 -401.49 870.42)" opacity="0.1" fill="#6c63ff" ry="48.53" rx="19.99" cy="1660.14998" cx="605.80001"/>
  <ellipse id="svg_2" fill="#3f3d56" ry="14.05" rx="10.73" cy="705.7" cx="872.63"/>
  <ellipse id="svg_3" fill="#3f3d56" ry="14.05" rx="10.73" cy="688.53" cx="872.63"/>
  <ellipse id="svg_4" fill="#3f3d56" ry="14.05" rx="10.73" cy="671.36" cx="872.63"/>
  <ellipse id="svg_5" fill="#3f3d56" ry="14.05" rx="10.73" cy="654.19" cx="872.63"/>
  <ellipse id="svg_6" fill="#3f3d56" ry="14.05" rx="10.73" cy="637.02" cx="872.63"/>
  <ellipse id="svg_7" fill="#3f3d56" ry="14.05" rx="10.73" cy="619.85" cx="872.63"/>
  <ellipse id="svg_8" fill="#3f3d56" ry="14.05" rx="10.73" cy="602.68" cx="872.63"/>
  <path id="svg_10" opacity="0.1" d="m820.99999,516.96a51.16,51.16 0 0 0 11,31.78a51.4,51.4 0 1 0 80.8,0c6.89,-8.74 -91.8,-37.55 -91.8,-31.78z"/>
  <ellipse id="svg_32" transform="rotate(-23.3 -404.13 249.64)" opacity="0.1" fill="#6c63ff" ry="13.78" rx="33.45" cy="1056.25" cx="245.73"/>
  <ellipse id="svg_33" fill="#3f3d56" ry="9.68" rx="7.4" cy="727.97" cx="511.39"/>
  <ellipse id="svg_34" fill="#3f3d56" ry="9.68" rx="7.4" cy="716.13" cx="511.39"/>
  <ellipse id="svg_35" fill="#3f3d56" ry="9.68" rx="7.4" cy="704.3" cx="511.39"/>
  <ellipse id="svg_36" fill="#3f3d56" ry="9.68" rx="7.4" cy="692.47" cx="511.39"/>
  <ellipse id="svg_37" fill="#3f3d56" ry="9.68" rx="7.4" cy="680.63" cx="511.39"/>
  <ellipse id="svg_38" fill="#3f3d56" ry="9.68" rx="7.4" cy="668.8" cx="511.39"/>
  <ellipse id="svg_39" fill="#3f3d56" ry="9.68" rx="7.4" cy="656.97" cx="511.39"/>
  <path id="svg_40" fill="#6c63ff" d="m483.69999,575.98a36.12,36.12 0 0 1 -2.76,-4l19.44,-3.2l-21,0.16a35.54,35.54 0 0 1 -0.68,-28.07l28.2,14.58l-26,-19.12a35.43,35.43 0 1 1 58.51,39.65a35.55,35.55 0 0 1 4,6.46l-25.21,13.11l26.9,-9a35.45,35.45 0 0 1 -5.71,33.27a35.43,35.43 0 1 1 -55.69,0a35.44,35.44 0 0 1 0,-43.81l0,-0.03z"/>
  <path id="svg_41" opacity="0.1" d="m546.96999,597.85a35.28,35.28 0 0 1 -7.58,21.91a35.43,35.43 0 1 1 -55.69,0c-4.75,-6 63.27,-25.85 63.27,-21.91z"/>
  <ellipse id="svg_42" transform="rotate(-45 -626.4 283.44)" opacity="0.1" fill="#6c63ff" ry="48.53" rx="19.99" cy="1051.17" cx="-440.11002"/>
  <ellipse id="svg_43" fill="#3f3d56" ry="14.05" rx="10.73" cy="683.7" cx="51.63"/>
  <ellipse id="svg_44" fill="#3f3d56" ry="14.05" rx="10.73" cy="666.53" cx="51.63"/>
  <ellipse id="svg_45" fill="#3f3d56" ry="14.05" rx="10.73" cy="649.36" cx="51.63"/>
  <ellipse id="svg_46" fill="#3f3d56" ry="14.05" rx="10.73" cy="632.19" cx="51.63"/>
  <ellipse id="svg_47" fill="#3f3d56" ry="14.05" rx="10.73" cy="615.02" cx="51.63"/>
  <ellipse id="svg_48" fill="#3f3d56" ry="14.05" rx="10.73" cy="597.85" cx="51.63"/>
  <ellipse id="svg_49" fill="#3f3d56" ry="14.05" rx="10.73" cy="580.68" cx="51.63"/>
  <path id="svg_51" opacity="0.1" d="m-0.00001,494.96a51.16,51.16 0 0 0 11,31.78a51.4,51.4 0 1 0 80.8,0c6.89,-8.74 -91.8,-37.55 -91.8,-31.78z"/>
  <g stroke="null" id="svg_53">
   <polygon stroke="null" id="svg_11" fill="#444053" points="547.314453125,71.99996948242188 547.314453125,325.4939880371094 449.37298583984375,313.5234069824219 330.31396484375,334.8274841308594 329.3546447753906,335 234.62442016601562,312.1151428222656 234.62442016601562,91.71617126464844 332.96728515625,71.99996948242188 440.5422668457031,91.71617126464844 444.63250732421875,90.95921325683594 547.314453125,71.99996948242188 "/>
   <polygon stroke="null" id="svg_12" fill="#fff" points="530.8570556640625,85.84356689453125 530.8570556640625,312.6537780761719 443.2276306152344,301.9436340332031 336.70025634765625,321.0050354003906 335.8412780761719,321.1564025878906 251.081787109375,300.6832275390625 251.081787109375,103.48251342773438 339.0765380859375,85.84356689453125 435.3240661621094,103.48251342773438 438.98486328125,102.80653381347656 530.8570556640625,85.84356689453125 "/>
   <polygon stroke="null" id="svg_13" opacity="0.1" points="449.37298583984375,313.5234069824219 330.31396484375,334.8274841308594 332.96728515625,71.99996948242188 440.5422668457031,91.71617126464844 444.63250732421875,90.95921325683594 449.37298583984375,313.5234069824219 "/>
   <g stroke="null" id="svg_14" opacity="0.3">
    <polyline stroke="#444053" id="svg_15" stroke-width="3" stroke-miterlimit="10" fill="none" points="437.4836120605469,120.58633422851562 437.5317687988281,194.3460235595703 472.4534912109375,194.3460235595703 472.4534912109375,164.06756591796875 532.261962890625,164.06756591796875 539.2864990234375,156.1670379638672 "/>
    <polyline stroke="#444053" id="svg_16" stroke-width="3" stroke-miterlimit="10" fill="none" points="243.05380249023438,143.99929809570312 372.9064636230469,143.99929809570312 380.9344787597656,140.8306427001953 384.1456604003906,140.8306427001953 384.1456604003906,211.9497833251953 440.341552734375,211.9497833251953 442.7499694824219,218.28713989257812 442.7499694824219,250.32595825195312 486.10107421875,250.32595825195312 486.10107421875,289.9344177246094 "/>
    <line stroke="#444053" id="svg_17" stroke-width="3" stroke-miterlimit="10" fill="none" y2="211.94978" x2="401.29745" y1="289.93439" x1="401.29745"/>
    <line stroke="#444053" id="svg_18" stroke-width="3" stroke-miterlimit="10" fill="none" y2="269.04226" x2="401.29745" y1="269.04226" x1="539.28649"/>
    <line stroke="#444053" id="svg_19" stroke-width="3" stroke-miterlimit="10" fill="none" y2="289.93439" x2="504.72601" y1="120.58632" x1="504.72601"/>
    <line stroke="#444053" id="svg_20" stroke-width="3" stroke-miterlimit="10" fill="none" y2="254.07204" x2="539.28649" y1="254.07204" x1="242.65241"/>
    <line stroke="#444053" id="svg_21" stroke-width="3" stroke-miterlimit="10" fill="none" y2="120.58632" x2="278.75426" y1="289.93439" x1="278.75426"/>
    <line stroke="#444053" id="svg_22" stroke-width="3" stroke-miterlimit="10" fill="none" y2="289.93439" x2="347.70663" y1="120.58632" x1="347.70663"/>
    <line stroke="#444053" id="svg_23" stroke-width="3" stroke-miterlimit="10" fill="none" y2="164.06758" x2="472.4535" y1="163.36343" x1="243.05381"/>
    <line stroke="#444053" id="svg_24" stroke-width="3" stroke-miterlimit="10" fill="none" y2="289.93439" x2="309.81855" y1="120.89263" x1="309.81855"/>
    <polyline stroke="#444053" id="svg_25" stroke-width="3" stroke-miterlimit="10" fill="none" points="242.65243530273438,202.55642700195312 347.7066650390625,202.55642700195312 401.2974548339844,254.07205200195312 "/>
    <line stroke="#444053" id="svg_26" stroke-width="3" stroke-miterlimit="10" fill="none" y2="211.94978" x2="412.90592" y1="120.58632" x1="412.90592"/>
    <line stroke="#444053" id="svg_27" stroke-width="3" stroke-miterlimit="10" fill="none" y2="228.31423" x2="539.28649" y1="228.31423" x1="401.29745"/>
   </g>
   <polygon stroke="null" id="svg_28" fill="#6c63ff" points="442.5492248535156,227.61712646484375 402.0079345703125,227.61712646484375 402.0079345703125,212.12582397460938 440.341552734375,211.9497833251953 442.7499694824219,217.93502807617188 442.5492248535156,227.61712646484375 "/>
   <path stroke="null" id="svg_29" fill="#6c63ff" d="m422.47929,147.34402a22.18935,19.46271 0 0 0 -22.18935,19.46271c0,10.74885 22.18935,45.67117 22.18935,45.67117s22.18935,-34.90824 22.18935,-45.67117a22.18935,19.46271 0 0 0 -22.18935,-19.46271zm0,27.76463a9.76203,8.56246 0 1 1 9.76203,-8.56246a9.76203,8.56246 0 0 1 -9.76203,8.55894l0,0.00352z"/>
   <path stroke="null" id="svg_30" opacity="0.1" d="m422.47929,147.34402a22.18935,19.46271 0 0 0 -22.18935,19.46271c0,10.74885 22.18935,45.67117 22.18935,45.67117s22.18935,-34.90824 22.18935,-45.67117a22.18935,19.46271 0 0 0 -22.18935,-19.46271zm0,27.76463a9.76203,8.56246 0 1 1 9.76203,-8.56246a9.76203,8.56246 0 0 1 -9.76203,8.55894l0,0.00352z"/>
   <path stroke="null" id="svg_31" fill="#6c63ff" d="m422.47929,150.16062a22.18935,19.46271 0 0 0 -22.18935,19.46271c0,10.74885 22.18935,45.67117 22.18935,45.67117s22.18935,-34.90824 22.18935,-45.67117a22.18935,19.46271 0 0 0 -22.18935,-19.46271zm0,27.76463a9.76203,8.56246 0 1 1 9.76203,-8.56246a9.76203,8.56246 0 0 1 -9.76203,8.55894l0,0.00352z"/>
  </g>
 </g>
</svg>