<svg width="150" height="150" xmlns="http://www.w3.org/2000/svg">
 <metadata id="metadata8">image/svg+xml</metadata>
 <defs>
  <clipPath id="clipPath18" clipPathUnits="userSpaceOnUse">
   <path id="path16" d="m0,133.568l554.417,0l0,-133.568l-554.417,0l0,133.568z"/>
  </clipPath>
 </defs>
 <g>
  <title>Layer 1</title>
  <g stroke="null" id="svg_1">
   <g stroke="null" transform="matrix(1.33333 0 0 -1.18768 0 177.269)" id="g146">
    <path stroke="null" fill="#4466ae" fill-rule="nonzero" id="path148" d="m111.2183,32.88098c0,-4.814 -3.465,-8.718 -7.739,-8.718l-94.21,0c-4.276,0 -7.74,3.904 -7.74,8.718l0,106.141c0,4.815 3.464,8.718 7.74,8.718l94.21,0c4.274,0 7.739,-3.903 7.739,-8.718l0,-106.141z"/>
   </g>
   <g stroke="null" transform="matrix(1.33333 0 0 -1.18768 0 177.269)" id="g150">
    <path stroke="#dadada" fill="none" stroke-linecap="round" stroke-linejoin="round" stroke-miterlimit="4" id="path152" d="m111.2183,32.88098c0,-4.814 -3.465,-8.718 -7.739,-8.718l-94.21,0c-4.276,0 -7.74,3.904 -7.74,8.718l0,106.141c0,4.815 3.464,8.718 7.74,8.718l94.21,0c4.274,0 7.739,-3.903 7.739,-8.718l0,-106.141z"/>
   </g>
   <g stroke="null" transform="matrix(1.33333 0 0 -1.18768 0 177.269)" id="g154">
    <path stroke="null" fill="#f6f6f6" fill-rule="nonzero" id="path156" d="m38.91889,48.29698c-4.254,0 -8.127,0.75 -11.621,2.253c-3.496,1.5 -6.491,3.635 -8.99,6.394c-2.499,2.757 -4.432,6.07 -5.8,9.934c-1.369,3.862 -2.053,8.155 -2.053,12.879c-0.001,4.783 0.683,9.108 2.05,12.972c1.368,3.863 3.293,7.159 5.776,9.891c2.483,2.728 5.457,4.828 8.922,6.301c3.465,1.473 7.279,2.209 11.444,2.209c3.508,0 6.765,-0.46 9.77,-1.378c3.002,-0.921 5.635,-2.231 7.895,-3.933c2.261,-1.702 4.09,-3.748 5.487,-6.14c1.398,-2.391 2.232,-5.075 2.499,-8.049l-8.118,-0.001c-0.149,1.961 -0.663,3.725 -1.54,5.289c-0.878,1.565 -2.068,2.882 -3.569,3.956c-1.502,1.073 -3.294,1.893 -5.376,2.461c-2.082,0.566 -4.386,0.85 -6.914,0.85c-3.005,0 -5.748,-0.537 -8.231,-1.612c-2.484,-1.073 -4.617,-2.652 -6.402,-4.738c-1.784,-2.085 -3.167,-4.645 -4.148,-7.681c-0.981,-3.037 -1.472,-6.502 -1.472,-10.397c0,-3.861 0.493,-7.314 1.474,-10.35c0.981,-3.035 2.365,-5.603 4.149,-7.703c1.786,-2.101 3.927,-3.711 6.425,-4.831c2.498,-1.118 5.249,-1.678 8.254,-1.678c4.311,0 8.028,0.715 11.152,2.142c3.123,1.426 5.724,3.578 7.806,6.462l-0.001,9.29l-15.524,0l-0.001,7.27l23.153,0.001l0.003,-31.003l-5.621,0l-2.008,6.393c-4.015,-4.97 -10.305,-7.453 -18.87,-7.453"/>
   </g>
   <g stroke="null" transform="matrix(1.33333 0 0 -1.18768 0 177.269)" id="g158">
    <path stroke="null" fill="#f6f6f6" fill-rule="nonzero" id="path160" d="m74.6582,87.71988c1.873,2.239 3.881,3.911 6.023,5.015c2.141,1.103 4.37,1.656 6.69,1.656c9.637,0.002 14.456,-5.427 14.456,-16.283l0.002,-28.749l-7.629,0l-0.002,28.382c0,1.809 -0.148,3.358 -0.445,4.645c-0.299,1.29 -0.766,2.338 -1.407,3.152c-0.64,0.812 -1.457,1.403 -2.453,1.77c-0.996,0.367 -2.193,0.552 -3.592,0.552c-3.866,0 -7.747,-2.331 -11.643,-6.995l0.003,-31.508l-7.539,0l-0.004,43.929l7.54,0l0,-5.566z"/>
   </g>
   <g stroke="null" transform="matrix(1.33333 0 0 -1.18768 0 177.269)" id="g162">
    <path stroke="null" fill="#ededed" fill-rule="nonzero" id="path164" d="m67.042,120.03919l0.027,3.695c0,0 0.033,4.618 0.05,6.813c0.013,2.195 -2.41,1.402 -2.41,1.402l-22.29,-8.04l-9.83,0.185c0,0 -0.297,0.695 -1.36,0.125l-0.028,-3.926l-0.029,-3.92c1.056,-0.584 1.363,0.106 1.363,0.106l9.831,0.046l22.171,-8.342c0,0 2.413,-0.823 2.428,1.366c0.016,2.19 0.05,6.802 0.05,6.802l0.027,3.688z"/>
   </g>
   <g stroke="null" transform="matrix(1.33333 0 0 -1.18768 0 177.269)" id="g166">
    <path stroke="null" fill="#52ace1" fill-rule="nonzero" id="path168" d="m31.17289,116.81268l0,-6.171"/>
   </g>
   <g stroke="null" transform="matrix(1.33333 0 0 -1.18768 0 177.269)" id="g170">
    <path stroke="null" fill="#52ace1" fill-rule="nonzero" id="path172" d="m31.26809,116.81268c0,0 0.432,-1.543 0.669,-3.086c0.056,-0.386 0.219,-0.771 0.231,-1.133c0,-0.361 -0.099,-0.699 -0.231,-0.989c-0.24,-0.578 -0.669,-0.963 -0.669,-0.963l-0.191,0c0.001,0 -0.429,0.385 -0.669,0.963c-0.132,0.29 -0.231,0.628 -0.231,0.989c0.012,0.362 0.174,0.747 0.231,1.133c0.236,1.543 0.669,3.086 0.669,3.086l0.191,0z"/>
   </g>
   <g stroke="null" transform="matrix(1.33333 0 0 -1.18768 0 177.269)" id="g174">
    <path stroke="null" fill="#52ace1" fill-rule="nonzero" id="path176" d="m31.8047,117.19548c1.007,-0.546 1.299,0.099 1.299,0.099l9.372,0.042l21.136,-7.802c0,0 2.301,-0.77 2.315,1.278c0.015,2.049 0.046,6.362 0.046,6.362l0.007,0.886l-34.168,0l-0.007,-0.865z"/>
   </g>
  </g>
 </g>
</svg>