<svg width="630" height="150" xmlns="http://www.w3.org/2000/svg">
 <metadata id="metadata8">image/svg+xml</metadata>
 <defs>
  <clipPath id="clipPath18" clipPathUnits="userSpaceOnUse">
   <path id="path16" d="m0,133.568l554.417,0l0,-133.568l-554.417,0l0,133.568z"/>
  </clipPath>
 </defs>
 <g>
  <title>Layer 1</title>
  <g stroke="null" id="svg_1">
   <g stroke="null" transform="matrix(1.33333 0 0 -1.18768 0 177.269)" id="g146">
    <path stroke="null" fill="#4466ae" fill-rule="nonzero" id="path148" d="m110.4683,32.88098c0,-4.814 -3.465,-8.718 -7.739,-8.718l-94.21,0c-4.276,0 -7.74,3.904 -7.74,8.718l0,106.141c0,4.815 3.464,8.718 7.74,8.718l94.21,0c4.274,0 7.739,-3.903 7.739,-8.718l0,-106.141z"/>
   </g>
   <g stroke="null" transform="matrix(1.33333 0 0 -1.18768 0 177.269)" id="g150">
    <path stroke="#dadada" fill="none" stroke-linecap="round" stroke-linejoin="round" stroke-miterlimit="4" id="path152" d="m110.4683,32.88098c0,-4.814 -3.465,-8.718 -7.739,-8.718l-94.21,0c-4.276,0 -7.74,3.904 -7.74,8.718l0,106.141c0,4.815 3.464,8.718 7.74,8.718l94.21,0c4.274,0 7.739,-3.903 7.739,-8.718l0,-106.141z"/>
   </g>
   <g stroke="null" transform="matrix(1.33333 0 0 -1.18768 0 177.269)" id="g154">
    <path stroke="null" fill="#f6f6f6" fill-rule="nonzero" id="path156" d="m38.16889,48.29698c-4.254,0 -8.127,0.75 -11.621,2.253c-3.496,1.5 -6.491,3.635 -8.99,6.394c-2.499,2.757 -4.432,6.07 -5.8,9.934c-1.369,3.862 -2.053,8.155 -2.053,12.879c-0.001,4.783 0.683,9.108 2.05,12.972c1.368,3.863 3.293,7.159 5.776,9.891c2.483,2.728 5.457,4.828 8.922,6.301c3.465,1.473 7.279,2.209 11.444,2.209c3.508,0 6.765,-0.46 9.77,-1.378c3.002,-0.921 5.635,-2.231 7.895,-3.933c2.261,-1.702 4.09,-3.748 5.487,-6.14c1.398,-2.391 2.232,-5.075 2.499,-8.049l-8.118,-0.001c-0.149,1.961 -0.663,3.725 -1.54,5.289c-0.878,1.565 -2.068,2.882 -3.569,3.956c-1.502,1.073 -3.294,1.893 -5.376,2.461c-2.082,0.566 -4.386,0.85 -6.914,0.85c-3.005,0 -5.748,-0.537 -8.231,-1.612c-2.484,-1.073 -4.617,-2.652 -6.402,-4.738c-1.784,-2.085 -3.167,-4.645 -4.148,-7.681c-0.981,-3.037 -1.472,-6.502 -1.472,-10.397c0,-3.861 0.493,-7.314 1.474,-10.35c0.981,-3.035 2.365,-5.603 4.149,-7.703c1.786,-2.101 3.927,-3.711 6.425,-4.831c2.498,-1.118 5.249,-1.678 8.254,-1.678c4.311,0 8.028,0.715 11.152,2.142c3.123,1.426 5.724,3.578 7.806,6.462l-0.001,9.29l-15.524,0l-0.001,7.27l23.153,0.001l0.003,-31.003l-5.621,0l-2.008,6.393c-4.015,-4.97 -10.305,-7.453 -18.87,-7.453"/>
   </g>
   <g stroke="null" transform="matrix(1.33333 0 0 -1.18768 0 177.269)" id="g158">
    <path stroke="null" fill="#f6f6f6" fill-rule="nonzero" id="path160" d="m73.9082,87.71988c1.873,2.239 3.881,3.911 6.023,5.015c2.141,1.103 4.37,1.656 6.69,1.656c9.637,0.002 14.456,-5.427 14.456,-16.283l0.002,-28.749l-7.629,0l-0.002,28.382c0,1.809 -0.148,3.358 -0.445,4.645c-0.299,1.29 -0.766,2.338 -1.407,3.152c-0.64,0.812 -1.457,1.403 -2.453,1.77c-0.996,0.367 -2.193,0.552 -3.592,0.552c-3.866,0 -7.747,-2.331 -11.643,-6.995l0.003,-31.508l-7.539,0l-0.004,43.929l7.54,0l0,-5.566z"/>
   </g>
   <g stroke="null" transform="matrix(1.33333 0 0 -1.18768 0 177.269)" id="g162">
    <path stroke="null" fill="#ededed" fill-rule="nonzero" id="path164" d="m66.292,120.03919l0.027,3.695c0,0 0.033,4.618 0.05,6.813c0.013,2.195 -2.41,1.402 -2.41,1.402l-22.29,-8.04l-9.83,0.185c0,0 -0.297,0.695 -1.36,0.125l-0.028,-3.926l-0.029,-3.92c1.056,-0.584 1.363,0.106 1.363,0.106l9.831,0.046l22.171,-8.342c0,0 2.413,-0.823 2.428,1.366c0.016,2.19 0.05,6.802 0.05,6.802l0.027,3.688z"/>
   </g>
   <g stroke="null" transform="matrix(1.33333 0 0 -1.18768 0 177.269)" id="g166">
    <path stroke="null" fill="#52ace1" fill-rule="nonzero" id="path168" d="m30.42289,116.81268l0,-6.171"/>
   </g>
   <g stroke="null" transform="matrix(1.33333 0 0 -1.18768 0 177.269)" id="g170">
    <path stroke="null" fill="#52ace1" fill-rule="nonzero" id="path172" d="m30.51809,116.81268c0,0 0.432,-1.543 0.669,-3.086c0.056,-0.386 0.219,-0.771 0.231,-1.133c0,-0.361 -0.099,-0.699 -0.231,-0.989c-0.24,-0.578 -0.669,-0.963 -0.669,-0.963l-0.191,0c0.001,0 -0.429,0.385 -0.669,0.963c-0.132,0.29 -0.231,0.628 -0.231,0.989c0.012,0.362 0.174,0.747 0.231,1.133c0.236,1.543 0.669,3.086 0.669,3.086l0.191,0z"/>
   </g>
   <g stroke="null" transform="matrix(1.33333 0 0 -1.18768 0 177.269)" id="g174">
    <path stroke="null" fill="#52ace1" fill-rule="nonzero" id="path176" d="m31.0547,117.19548c1.007,-0.546 1.299,0.099 1.299,0.099l9.372,0.042l21.136,-7.802c0,0 2.301,-0.77 2.315,1.278c0.015,2.049 0.046,6.362 0.046,6.362l0.007,0.886l-34.168,0l-0.007,-0.865z"/>
   </g>
  </g>
  <g id="svg_2">
   <g transform="matrix(1.33333 0 0 -1.33333 0 178.091)" id="g20">
    <path fill="#4466ae" fill-rule="nonzero" id="path22" d="m152.3325,41.8359c-4.426,0 -8.457,0.686 -12.093,2.055c-3.637,1.369 -6.755,3.312 -9.354,5.828c-2.6,2.515 -4.612,5.534 -6.035,9.055c-1.424,3.523 -2.136,7.436 -2.136,11.741c0,4.36 0.712,8.301 2.136,11.823c1.423,3.522 3.427,6.526 6.012,9.015c2.583,2.487 5.678,4.402 9.284,5.744c3.605,1.342 7.574,2.012 11.907,2.012c3.652,0 7.041,-0.419 10.167,-1.257c3.125,-0.839 5.864,-2.034 8.216,-3.585c2.352,-1.552 4.255,-3.417 5.71,-5.598c1.455,-2.18 2.322,-4.626 2.601,-7.337l-8.45,0c-0.155,1.789 -0.689,3.396 -1.601,4.822c-0.913,1.425 -2.152,2.627 -3.714,3.606c-1.563,0.977 -3.428,1.725 -5.594,2.243c-2.166,0.517 -4.565,0.775 -7.195,0.775c-3.127,0 -5.982,-0.489 -8.565,-1.467c-2.585,-0.979 -4.805,-2.418 -6.662,-4.319c-1.857,-1.901 -3.296,-4.234 -4.317,-7.002c-1.022,-2.767 -1.532,-5.925 -1.532,-9.475c0,-3.522 0.51,-6.666 1.532,-9.434c1.021,-2.767 2.46,-5.108 4.317,-7.023c1.857,-1.914 4.085,-3.382 6.685,-4.403c2.599,-1.02 5.462,-1.53 8.588,-1.53c4.487,0 8.356,0.65 11.606,1.95c3.249,1.3 5.957,3.263 8.124,5.891l0,8.469l-16.156,0l0,6.625l24.094,0l0,-28.259l-5.849,0l-2.089,5.827c-4.179,-4.527 -10.724,-6.792 -19.637,-6.792"/>
   </g>
   <g transform="matrix(1.33333 0 0 -1.33333 0 178.091)" id="g24">
    <path fill="#4466ae" fill-rule="nonzero" id="path26" d="m212.18951,53.3242l0,8.889l-5.478,0c-11.451,0 -17.176,-2.81 -17.176,-8.427c0,-2.041 0.851,-3.607 2.553,-4.696c1.702,-1.091 3.961,-1.636 6.778,-1.636c1.3,0 2.592,0.133 3.876,0.398c1.284,0.266 2.507,0.651 3.668,1.154c1.16,0.503 2.235,1.118 3.226,1.844c0.99,0.727 1.84,1.551 2.553,2.474m0,-6.457c-4.147,-3.355 -9.347,-5.031 -15.598,-5.031c-2.135,0 -4.116,0.28 -5.942,0.839c-1.826,0.558 -3.42,1.341 -4.781,2.347c-1.363,1.006 -2.43,2.223 -3.203,3.649c-0.775,1.424 -1.161,3.004 -1.161,4.737c0,9.363 8.928,14.046 26.786,14.046l3.899,0c0,1.732 -0.062,3.27 -0.186,4.611c-0.124,1.342 -0.518,2.467 -1.183,3.376c-0.666,0.908 -1.726,1.6 -3.181,2.075c-1.455,0.475 -3.497,0.713 -6.128,0.713c-6.994,0 -10.615,-2.278 -10.862,-6.834l-7.939,0c0.558,8.302 6.979,12.452 19.266,12.452c2.785,0 5.292,-0.224 7.521,-0.67c2.228,-0.448 4.123,-1.237 5.686,-2.37c1.563,-1.131 2.762,-2.683 3.598,-4.653c0.836,-1.971 1.254,-4.466 1.254,-7.484l0,-25.869l-7.846,0l0,4.066z"/>
   </g>
   <path fill="#4466ae" fill-rule="nonzero" id="path28" d="m309.86798,121.02267l-10.46,0l0,-73.792l10.46,0l0,73.792z"/>
   <g transform="matrix(1.33333 0 0 -1.33333 0 178.091)" id="g30">
    <path fill="#4466ae" fill-rule="nonzero" id="path32" d="m272.76168,82.8413l-16.713,-40.041l-7.102,0l-16.712,40.041l8.542,0l11.698,-31.278l11.791,31.278l8.496,0z"/>
   </g>
   <g transform="matrix(1.33333 0 0 -1.33333 0 178.091)" id="g34">
    <path fill="#4466ae" fill-rule="nonzero" id="path36" d="m300.77248,53.3242l0,8.889l-5.478,0c-11.451,0 -17.176,-2.81 -17.176,-8.427c0,-2.041 0.85,-3.607 2.553,-4.696c1.702,-1.091 3.961,-1.636 6.778,-1.636c1.3,0 2.592,0.133 3.876,0.398c1.284,0.266 2.507,0.651 3.668,1.154c1.16,0.503 2.235,1.118 3.226,1.844c0.99,0.727 1.841,1.551 2.553,2.474m0,-6.457c-4.147,-3.355 -9.347,-5.031 -15.598,-5.031c-2.135,0 -4.116,0.28 -5.942,0.839c-1.826,0.558 -3.42,1.341 -4.781,2.347c-1.363,1.006 -2.43,2.223 -3.203,3.649c-0.775,1.424 -1.161,3.004 -1.161,4.737c0,9.363 8.928,14.046 26.786,14.046l3.899,0c0,1.732 -0.062,3.27 -0.186,4.611c-0.124,1.342 -0.518,2.467 -1.183,3.376c-0.666,0.908 -1.726,1.6 -3.181,2.075c-1.455,0.475 -3.497,0.713 -6.127,0.713c-6.995,0 -10.616,-2.278 -10.863,-6.834l-7.939,0c0.558,8.302 6.98,12.452 19.266,12.452c2.785,0 5.292,-0.224 7.521,-0.67c2.228,-0.448 4.123,-1.237 5.686,-2.37c1.563,-1.131 2.763,-2.683 3.598,-4.653c0.836,-1.971 1.254,-4.466 1.254,-7.484l0,-25.869l-7.846,0l0,4.066z"/>
   </g>
   <g transform="matrix(1.33333 0 0 -1.33333 0 178.091)" id="g38">
    <path fill="#4466ae" fill-rule="nonzero" id="path40" d="m320.9844,77.7681c1.95,2.04 4.039,3.564 6.268,4.57c2.228,1.007 4.548,1.51 6.962,1.51c10.028,0 15.041,-4.948 15.041,-14.843l0,-26.204l-7.938,0l0,25.869c0,1.649 -0.155,3.06 -0.464,4.234c-0.309,1.175 -0.797,2.132 -1.462,2.872c-0.666,0.741 -1.516,1.28 -2.553,1.615c-1.038,0.335 -2.283,0.503 -3.738,0.503c-4.023,0 -8.061,-2.125 -12.116,-6.374l0,-28.719l-7.845,0l0,40.04l7.845,0l0,-5.073z"/>
   </g>
   <g transform="matrix(1.33333 0 0 -1.33333 0 178.091)" id="g42">
    <path fill="#4466ae" fill-rule="nonzero" id="path44" d="m371.60348,47.4541c1.857,0 3.559,0.321 5.106,0.965c1.548,0.642 2.878,1.607 3.993,2.892c1.114,1.286 1.98,2.894 2.599,4.823c0.619,1.928 0.929,4.164 0.929,6.708c0,2.543 -0.31,4.78 -0.929,6.708c-0.619,1.929 -1.485,3.536 -2.599,4.822c-1.115,1.285 -2.445,2.249 -3.993,2.893c-1.547,0.643 -3.249,0.964 -5.106,0.964c-1.888,0 -3.605,-0.321 -5.152,-0.964c-1.548,-0.644 -2.879,-1.608 -3.993,-2.893c-1.114,-1.286 -1.981,-2.893 -2.599,-4.822c-0.62,-1.928 -0.929,-4.165 -0.929,-6.708c0,-2.544 0.309,-4.78 0.929,-6.708c0.618,-1.929 1.485,-3.537 2.599,-4.823c1.114,-1.285 2.445,-2.25 3.993,-2.892c1.547,-0.644 3.264,-0.965 5.152,-0.965m0,36.394c3.188,0 6.065,-0.476 8.635,-1.426c2.568,-0.95 4.758,-2.327 6.568,-4.13c1.811,-1.803 3.203,-4.004 4.179,-6.604c0.974,-2.599 1.462,-5.548 1.462,-8.846c0,-3.327 -0.495,-6.289 -1.486,-8.889c-0.991,-2.6 -2.398,-4.801 -4.224,-6.603c-1.826,-1.803 -4.016,-3.173 -6.569,-4.109c-2.553,-0.936 -5.408,-1.405 -8.565,-1.405c-3.095,0 -5.919,0.469 -8.472,1.405c-2.553,0.936 -4.751,2.291 -6.591,4.067c-1.842,1.775 -3.266,3.968 -4.272,6.583c-1.006,2.613 -1.509,5.596 -1.509,8.951c0,3.298 0.495,6.254 1.487,8.868c0.989,2.613 2.397,4.814 4.223,6.603c1.826,1.788 4.024,3.159 6.593,4.109c2.568,0.95 5.415,1.426 8.541,1.426"/>
   </g>
   <g transform="matrix(1.33333 0 0 -1.33333 0 178.091)" id="g46">
    <path fill="#4466ae" fill-rule="nonzero" id="path48" d="m417.1621,76.3428c-1.113,0.335 -2.708,0.503 -4.781,0.503c-2.042,0 -3.915,-0.476 -5.617,-1.426c-1.703,-0.95 -3.296,-2.376 -4.782,-4.276l0,-28.343l-7.845,0l0,40.041l7.845,0l0,-5.535c3.343,4.361 7.211,6.541 11.606,6.541c1.052,0 2.244,-0.112 3.574,-0.336l0,-7.169z"/>
   </g>
   <g transform="matrix(1.33333 0 0 -1.33333 0 178.091)" id="g50">
    <path fill="#4466ae" fill-rule="nonzero" id="path52" d="m432.73238,42.7588c-0.866,-0.195 -1.771,-0.336 -2.716,-0.42c-0.944,-0.084 -1.926,-0.125 -2.947,-0.125c-2.353,0 -4.218,0.258 -5.594,0.775c-1.378,0.517 -2.431,1.293 -3.157,2.328c-0.728,1.033 -1.199,2.319 -1.416,3.857c-0.217,1.536 -0.324,3.325 -0.324,5.366l0,22.767l-5.479,0l0,5.535l5.479,0l0,9.979l7.891,0l0,-9.979l7.242,0l0,-5.535l-7.242,0l0,-23.102c0,-1.398 0.1,-2.515 0.302,-3.354c0.201,-0.839 0.487,-1.483 0.858,-1.929c0.373,-0.447 0.82,-0.741 1.347,-0.88c0.526,-0.14 1.129,-0.21 1.811,-0.21c0.711,0 1.392,0.028 2.042,0.083c0.65,0.057 1.284,0.127 1.903,0.21l0,-5.366z"/>
   </g>
   <g transform="matrix(1.33333 0 0 -1.33333 0 178.091)" id="g54">
    <path fill="#4466ae" fill-rule="nonzero" id="path56" d="m462.64751,66.7412c-0.62,3.801 -2.051,6.666 -4.294,8.595c-2.245,1.929 -4.976,2.893 -8.194,2.893c-1.578,0 -3.064,-0.238 -4.456,-0.713c-1.393,-0.475 -2.631,-1.188 -3.714,-2.138c-1.084,-0.95 -1.996,-2.146 -2.739,-3.584c-0.743,-1.441 -1.27,-3.124 -1.579,-5.053l24.976,0zm-11.652,-24.905c-3.219,0 -6.16,0.468 -8.821,1.405c-2.662,0.936 -4.944,2.306 -6.847,4.108c-1.904,1.803 -3.381,4.004 -4.433,6.604c-1.053,2.6 -1.578,5.561 -1.578,8.889c0,3.27 0.51,6.198 1.531,8.784c1.022,2.585 2.445,4.786 4.272,6.603c1.825,1.817 4.022,3.207 6.591,4.172c2.569,0.964 5.385,1.446 8.449,1.446c3.187,0 6.065,-0.475 8.634,-1.425c2.569,-0.951 4.759,-2.327 6.57,-4.13c1.81,-1.803 3.203,-4.004 4.178,-6.604c0.974,-2.599 1.461,-5.549 1.461,-8.846l0,-1.719l-33.423,0c0.185,-2.32 0.641,-4.333 1.369,-6.038c0.727,-1.705 1.686,-3.123 2.878,-4.256c1.191,-1.132 2.56,-1.978 4.109,-2.536c1.547,-0.56 3.233,-0.839 5.06,-0.839c1.299,0 2.599,0.161 3.899,0.482c1.3,0.322 2.468,0.789 3.505,1.405c1.036,0.615 1.88,1.377 2.53,2.285c0.65,0.908 0.99,1.95 1.022,3.124l8.262,0c-0.34,-2.07 -1.06,-3.907 -2.158,-5.514c-1.099,-1.607 -2.492,-2.956 -4.179,-4.046c-1.686,-1.09 -3.628,-1.922 -5.826,-2.495c-2.197,-0.572 -4.549,-0.859 -7.055,-0.859"/>
   </g>
  </g>
 </g>
</svg>