<?xml version="1.0" encoding="UTF-8"?>
<svg xmlns="http://www.w3.org/2000/svg" xmlns:xlink="http://www.w3.org/1999/xlink" width="32pt" height="32pt" viewBox="0 0 32 32" version="1.1">
<g id="surface1">
<path style="fill-rule:nonzero;fill:rgb(26.666667%,40%,68.235294%);fill-opacity:1;stroke-width:1;stroke-linecap:round;stroke-linejoin:round;stroke:rgb(85.490196%,85.490196%,85.490196%);stroke-opacity:1;stroke-miterlimit:4;" d="M 111.223117 32.888482 C 111.223117 28.062939 107.748682 24.16242 103.477737 24.16242 L 9.269738 24.16242 C 4.998792 24.16242 1.524357 28.062939 1.524357 32.888482 L 1.524357 139.019599 C 1.524357 143.829725 4.998792 147.745661 9.269738 147.745661 L 103.477737 147.745661 C 107.748682 147.745661 111.223117 143.829725 111.223117 139.019599 Z M 111.223117 32.888482 " transform="matrix(0.284444,0,0,-0.253372,0,37.817387)"/>
<path style=" stroke:none;fill-rule:nonzero;fill:rgb(96.470588%,96.470588%,96.470588%);fill-opacity:1;" d="M 11.070312 25.582031 C 9.859375 25.582031 8.757812 25.390625 7.765625 25.007812 C 6.769531 24.628906 5.917969 24.089844 5.207031 23.390625 C 4.496094 22.691406 3.945312 21.851562 3.558594 20.871094 C 3.167969 19.894531 2.972656 18.804688 2.972656 17.609375 C 2.972656 16.398438 3.167969 15.300781 3.558594 14.324219 C 3.945312 13.34375 4.492188 12.507812 5.199219 11.816406 C 5.90625 11.125 6.753906 10.59375 7.738281 10.21875 C 8.722656 9.847656 9.808594 9.660156 10.992188 9.660156 C 11.992188 9.660156 12.917969 9.777344 13.773438 10.007812 C 14.625 10.242188 15.375 10.574219 16.015625 11.003906 C 16.660156 11.4375 17.179688 11.957031 17.578125 12.5625 C 17.976562 13.167969 18.214844 13.847656 18.289062 14.601562 L 15.980469 14.601562 C 15.9375 14.105469 15.792969 13.65625 15.542969 13.261719 C 15.292969 12.863281 14.953125 12.53125 14.527344 12.257812 C 14.097656 11.988281 13.589844 11.777344 12.996094 11.636719 C 12.40625 11.492188 11.75 11.417969 11.03125 11.417969 C 10.175781 11.417969 9.394531 11.554688 8.691406 11.828125 C 7.984375 12.101562 7.375 12.5 6.867188 13.027344 C 6.359375 13.558594 5.96875 14.207031 5.6875 14.976562 C 5.410156 15.746094 5.269531 16.621094 5.269531 17.609375 C 5.269531 18.585938 5.410156 19.460938 5.6875 20.230469 C 5.96875 21 6.363281 21.652344 6.871094 22.183594 C 7.378906 22.714844 7.988281 23.125 8.695312 23.40625 C 9.40625 23.691406 10.191406 23.832031 11.042969 23.832031 C 12.269531 23.832031 13.328125 23.652344 14.21875 23.289062 C 15.105469 22.929688 15.84375 22.382812 16.4375 21.652344 L 16.4375 19.296875 L 12.019531 19.296875 L 12.019531 17.457031 L 18.605469 17.457031 L 18.609375 25.3125 L 17.007812 25.3125 L 16.4375 23.691406 C 15.296875 24.953125 13.507812 25.582031 11.070312 25.582031 "/>
<path style=" stroke:none;fill-rule:nonzero;fill:rgb(96.470588%,96.470588%,96.470588%);fill-opacity:1;" d="M 21.234375 15.589844 C 21.769531 15.023438 22.339844 14.601562 22.949219 14.320312 C 23.558594 14.042969 24.191406 13.902344 24.851562 13.902344 C 27.59375 13.902344 28.964844 15.277344 28.964844 18.027344 L 28.964844 25.3125 L 26.792969 25.3125 L 26.792969 18.121094 C 26.792969 17.660156 26.753906 17.269531 26.667969 16.941406 C 26.582031 16.617188 26.449219 16.351562 26.265625 16.144531 C 26.085938 15.9375 25.851562 15.789062 25.570312 15.695312 C 25.285156 15.601562 24.945312 15.554688 24.546875 15.554688 C 23.449219 15.554688 22.34375 16.148438 21.234375 17.328125 L 21.238281 25.3125 L 19.09375 25.3125 L 19.089844 14.179688 L 21.234375 14.179688 Z M 21.234375 15.589844 "/>
<path style=" stroke:none;fill-rule:nonzero;fill:rgb(92.941176%,92.941176%,92.941176%);fill-opacity:1;" d="M 19.070312 7.402344 L 19.078125 6.464844 C 19.078125 6.464844 19.085938 5.296875 19.089844 4.742188 C 19.09375 4.183594 18.40625 4.386719 18.40625 4.386719 L 12.066406 6.421875 L 9.269531 6.375 C 9.269531 6.375 9.183594 6.199219 8.882812 6.34375 L 8.875 7.339844 L 8.867188 8.332031 C 9.167969 8.480469 9.253906 8.304688 9.253906 8.304688 L 12.050781 8.292969 L 18.355469 10.40625 C 18.355469 10.40625 19.042969 10.617188 19.046875 10.0625 C 19.050781 9.503906 19.0625 8.335938 19.0625 8.335938 Z M 19.070312 7.402344 "/>
<path style=" stroke:none;fill-rule:nonzero;fill:rgb(32.156863%,67.45098%,88.235294%);fill-opacity:1;" d="M 8.894531 8.21875 C 8.894531 8.21875 9.015625 8.609375 9.085938 9.003906 C 9.101562 9.101562 9.148438 9.199219 9.148438 9.289062 C 9.148438 9.378906 9.121094 9.464844 9.085938 9.539062 C 9.015625 9.6875 8.894531 9.785156 8.894531 9.785156 L 8.839844 9.785156 C 8.839844 9.785156 8.71875 9.6875 8.648438 9.539062 C 8.613281 9.464844 8.582031 9.378906 8.582031 9.289062 C 8.585938 9.199219 8.632812 9.101562 8.648438 9.003906 C 8.714844 8.609375 8.839844 8.21875 8.839844 8.21875 Z M 8.894531 8.21875 "/>
<path style=" stroke:none;fill-rule:nonzero;fill:rgb(32.156863%,67.45098%,88.235294%);fill-opacity:1;" d="M 9.046875 8.125 C 9.332031 8.261719 9.417969 8.097656 9.417969 8.097656 L 12.082031 8.085938 L 18.09375 10.0625 C 18.09375 10.0625 18.75 10.257812 18.753906 9.742188 C 18.757812 9.222656 18.765625 8.128906 18.765625 8.128906 L 18.765625 7.902344 L 9.046875 7.902344 Z M 9.046875 8.125 "/>
</g>
</svg>
